# xmcd
#
# Track frame offsets:
#	150
#	16302
#	33318
#	52125
#	65233
#	84855
#	97032
#	116926
#	133783
#	152176
#	168618
#	182100
#	198532
#	211618
#
# Disc length: 3079 seconds
#
# Revision: 0
# Processed by: cddbd v1.4PL0 Copyright (c) Steve Scherf et al.
# Submitted via: EasyCDDAExtractor 4.6.9.1
#
DISCID=cc0c050e
DTITLE=Brooks and Dunn - Red Dirt Road
DYEAR=2003
DGENRE=Country
TTITLE0=You Can't Take The Honky Tonk Out Of The Girl
TTITLE1=Caroline
TTITLE2=When We Were Kings
TTITLE3=That's What She Gets For Lovin Me
TTITLE4=Red Dirt Road
TTITLE5=Feels Good Don't It
TTITLE6=I Used To Know This Song By Heart
TTITLE7=Believer
TTITLE8=Memory Town
TTITLE9=She Was Born To Run
TTITLE10=Till My Dyin' Day
TTITLE11=My Baby's Everything I Love
TTITLE12=Good Day To Be Me
TTITLE13=Good Cowboy
EXTD=
EXTT0=
EXTT1=
EXTT2=
EXTT3=
EXTT4=
EXTT5=
EXTT6=
EXTT7=
EXTT8=
EXTT9=
EXTT10=
EXTT11=
EXTT12=
EXTT13=
PLAYORDER=
